<?xml version="1.0" encoding="UTF-8"?>
<svg width="566px" height="428px" viewBox="0 0 566 428" version="1.1" xmlns="http://www.w3.org/2000/svg" xmlns:xlink="http://www.w3.org/1999/xlink">
    <title>drag</title>
    <defs>
        <radialGradient cx="50%" cy="50%" fx="50%" fy="50%" r="62.5568225%" id="radialGradient-1">
            <stop stop-color="#603EFF" offset="0%"></stop>
            <stop stop-color="#10D1FF" stop-opacity="0" offset="100%"></stop>
        </radialGradient>
        <radialGradient cx="50%" cy="50%" fx="50%" fy="50%" r="62.5568225%" id="radialGradient-2">
            <stop stop-color="#603EFF" offset="0%"></stop>
            <stop stop-color="#10D1FF" stop-opacity="0.41997224" offset="100%"></stop>
        </radialGradient>
    </defs>
    <g id="drag" stroke="none" stroke-width="1" fill="none" fill-rule="evenodd">
        <rect fill="#FFFFFF" x="0" y="0" width="566" height="428"></rect>
        <g id="Group" transform="translate(40.196051, -36.220781)">
            <g id="satellite" transform="translate(365.475205, 41.157089)" fill="#000000" fill-rule="nonzero">
                <path d="M45.3685384,36.7032634 L42.0285384,40.0382634 L40.6145384,38.6242634 L48.5615384,30.6712634 C49.1905384,30.0452634 49.0725384,28.9102634 48.2965384,28.1342634 L42.8625384,22.7032634 C42.0875384,21.9272634 40.9575384,21.8112634 40.3255384,22.4372634 L32.3785384,30.3882634 L30.9585384,28.9682634 L34.2935384,25.6322634 L11.8615384,3.19926336 L3.19953838,11.8602634 L25.6335384,34.2962634 L28.9695384,30.9592634 L30.3895384,32.3812634 L27.9785384,34.7952634 C27.3475384,35.4222634 27.4655384,36.5582634 28.2435384,37.3322634 L30.1095384,39.1952634 L26.8445384,42.4572634 L25.3845384,40.9972634 C25.3085384,41.0612634 25.2255384,41.1112634 25.1485384,41.1892634 C23.8615384,42.4752634 23.8615384,44.5652634 25.1485384,45.8562634 C26.4405384,47.1422634 28.5285384,47.1422634 29.8155384,45.8562634 C29.8905384,45.7832634 29.9395384,45.7012634 30.0045384,45.6192634 L28.5455384,44.1612634 L31.8105384,40.8972634 L33.6715384,42.7622634 C34.4495384,43.5372634 35.5855384,43.6552634 36.2135384,43.0272634 L38.6255384,40.6142634 L40.0395384,42.0312634 L36.7035384,45.3682634 L59.1395384,67.8032634 L67.7985384,59.1422634 L45.3685384,36.7032634 Z" id="Shape" transform="translate(35.499038, 35.501263) rotate(6.000000) translate(-35.499038, -35.501263) "></path>
            </g>
            <polyline id="SPIRALshape" stroke="#979797" stroke-width="5" transform="translate(242.803949, 250.220781) scale(-1, 1) rotate(-113.000000) translate(-242.803949, -250.220781) " points="236.397138 296.706379 324.036444 296.706379 326.973994 306.441991 328.695464 316.800483 329.093367 327.638801 328.078871 338.79881 325.583954 350.109548 321.563253 361.389758 315.995585 372.450646 308.885101 383.098839 300.262042 393.139481 290.183098 402.379442 278.731328 410.630571 266.015656 417.712947 252.169937 423.458089 237.351597 427.712048 221.739855 430.33836 205.53356 431.220781 188.94866 430.265778 172.215335 427.404727 155.574838 422.595768 139.276078 415.825293 123.572 407.109036 108.715815 396.492729 94.9571241 384.052319 82.538006 369.89372 71.6891195 354.152109 62.6258831 336.990757 55.5447904 318.599398 50.6199196 299.192173 47.9996942 279.005145 47.8039485 258.293429 50.121347 237.327969 55.0072046 216.392005 62.4817478 195.777264 72.5288515 175.779944 85.0952797 156.696529 100.090451 138.819512 117.386747 122.433059 136.820359 107.80871 158.19269 95.201154 181.272284 84.8441481 205.797272 76.9466536 231.478322 71.6892339 258.002034 69.2207807 285.034767 69.6556189 312.226836 73.0710403 339.217025 79.5053095 365.637373 88.9561791 391.118147 101.379946 415.292962 116.691074 437.803949 134.762392"></polyline>
            <g id="Group-2" transform="translate(30.803949, 72.220781)">
                <circle id="Oval" fill-opacity="0.5" fill="url(#radialGradient-1)" cx="181" cy="181" r="181"></circle>
                <circle id="Oval" fill="url(#radialGradient-2)" opacity="0.169816517" cx="181.5" cy="180.5" r="158.5"></circle>
                <g id="noun_Earth_269596" transform="translate(45.500000, 45.000000)">
                    <circle id="Oval" fill="#FFFFFF" cx="135.5" cy="135.5" r="135.5"></circle>
                    <path d="M135.997116,271 C119.581263,271 103.837388,268.064097 89.2615414,262.694105 C88.7222293,262.515298 88.3963348,262.397054 88.3040461,262.36533 C88.1396569,262.307651 87.9810357,262.235551 87.8281825,262.157683 C36.8242556,242.693626 0.5,193.259134 0.5,135.501442 C0.5,85.2104037 28.1231616,39.3145679 72.5832429,15.726404 C85.1921865,8.74714527 98.6144244,4.14429534 112.480802,2.03898177 C120.192676,0.683505912 128.103548,0 135.997116,0 C150.532586,0 164.834451,2.289889 178.510483,6.80333521 C179.110359,6.872551 179.6987,7.02540253 180.2582,7.25612183 C180.999393,7.5618249 181.729051,7.86464397 182.455824,8.17899901 C197.819009,13.7825939 211.918992,22.0625326 224.369314,32.7823278 C261.665485,62.8623559 270.4531,100.732044 271.251974,127.230155 C271.419247,129.967063 271.5,132.750114 271.5,135.498558 C271.5,189.890632 239.285476,236.899688 192.933476,258.451754 C192.720058,258.57865 192.492221,258.699778 192.255731,258.800717 C191.687578,259.048741 191.119426,259.29388 190.54839,259.530367 C173.849903,266.904733 155.395047,271 135.997116,271 Z M93.1174787,256.398353 C99.1422004,258.218151 115.95028,262.642194 136.994988,262.647962 C136.994988,262.647962 136.997872,262.647962 137.000756,262.647962 C155.149905,262.647962 172.11949,259.423659 187.474023,253.061575 C186.441543,251.550363 184.584233,249.468122 183.64981,248.427001 C183.107613,247.815595 182.614446,247.267637 182.219335,246.803314 C181.016698,245.381506 179.612179,244.902764 176.635868,244.902764 C175.946587,244.902764 175.240002,244.922952 174.530532,244.948908 C173.723006,244.974864 172.903944,245.003703 172.079114,245.003703 C166.386055,245.003703 162.172499,244.599945 157.399442,242.540775 C153.557925,240.885364 151.221867,240.34029 147.798534,242.263912 C140.458698,246.379367 133.692782,249.719029 123.921716,249.098971 C121.268416,248.931699 118.765085,248.623112 117.282698,246.673534 C115.846455,244.781636 116.284826,242.679207 116.674169,240.833452 C116.801066,240.233582 116.948151,239.535656 117.072164,238.719487 L117.118309,238.422436 C117.813358,233.813818 117.386523,233.672502 116.613605,233.410059 C114.721687,232.769813 112.232776,233.920525 110.470638,236.048911 C109.723677,236.948716 109.195901,237.733162 108.679661,238.485883 C107.174201,240.689253 105.752379,242.777262 101.189856,244.432673 C94.5133453,246.85811 93.293404,248.972075 93.1174787,256.398353 Z M20.5208799,79.3962774 C12.1889407,96.561793 7.65237426,115.668235 7.65237426,135.501442 C7.65237426,188.572648 40.037056,234.223344 86.0775813,253.739313 C86.6082413,246.333223 88.9558351,241.260283 98.7442054,237.701438 C101.137944,236.827588 101.51575,236.273862 102.767416,234.442528 C103.31538,233.637894 103.996009,232.640033 104.953504,231.483553 C108.633516,227.042206 114.231403,225.037832 118.903518,226.621144 C125.78191,228.948524 124.749431,235.803772 124.192814,239.483744 L124.14667,239.780795 C124.025541,240.579661 123.889992,241.283355 123.757327,241.906297 C123.941905,241.923601 124.143786,241.938021 124.36874,241.949557 C132.213279,242.434067 137.476619,239.838475 144.294447,236.014303 C146.892951,234.557887 149.38763,233.848426 151.914033,233.848426 C154.743258,233.848426 157.284081,234.693435 160.23732,235.959507 C163.89426,237.53705 167.210885,237.834101 172.053158,237.834101 C172.828959,237.834101 173.567269,237.808145 174.299811,237.785073 C175.090033,237.759118 175.871602,237.733162 176.638752,237.733162 C180.249548,237.733162 184.385235,238.263816 187.68744,242.171624 C188.045059,242.592687 188.494966,243.097385 188.98525,243.648228 C191.081934,245.992912 192.849839,248.054966 193.980376,249.978588 C220.620086,236.432482 241.92724,213.862367 253.849786,186.314483 C248.641243,191.179776 243.155833,195.615354 237.938637,199.177083 C235.028659,201.161269 231.795671,202.254302 228.839548,202.254302 L228.839548,202.254302 C225.704617,202.254302 223.169561,201.028606 221.695826,198.802165 C220.527797,197.02851 219.570302,193.873424 221.678522,188.912959 C222.191878,187.701683 222.751378,186.620186 223.29069,185.579065 C224.369314,183.476635 225.300854,181.662605 225.517155,179.467888 C225.753645,177.114551 225.672892,174.62855 225.589256,171.99835 C225.545995,170.634223 225.499851,169.287399 225.499851,167.957879 C225.499851,158.93387 226.884182,154.558856 230.783379,146.746124 C234.489347,139.325614 233.428027,130.414082 232.303259,124.3577 C230.757423,116.020082 229.401933,114.915513 220.253815,114.514638 C211.800747,114.148371 203.111189,112.951515 197.746908,102.935413 C195.422387,98.5950068 194.560064,97.5077421 191.15115,94.6122149 C186.256965,90.4563836 186.259849,87.0157821 186.262733,82.2571967 L186.262733,81.7351943 C186.262733,77.256356 186.259849,73.5302393 188.601675,69.1350368 C189.256348,67.9064565 189.931209,66.8076559 190.585882,65.7434631 C192.37686,62.830632 193.671786,60.7253185 193.567961,57.6711718 C193.46702,54.7323848 191.93272,52.2175445 190.156163,49.3104813 C188.555531,46.6918173 186.741481,43.7241904 185.890695,40.0990135 C185.662857,39.1184565 185.50712,38.1696234 185.365803,37.2669341 C184.875519,34.1493397 184.71113,33.9993721 183.378711,33.6158013 C182.536577,33.373546 181.091682,33.4629498 179.531426,33.6129173 C178.545091,33.708089 177.529915,33.8061447 176.468595,33.8061447 C174.792978,33.8061447 173.350967,33.5494695 172.070462,33.0216991 C167.161856,30.9913693 164.961348,26.0943523 166.187057,19.9110752 C166.755209,17.0357359 168.055903,14.0565731 169.829577,11.6599764 C154.642317,7.52144902 138.586968,6.21500101 122.779644,7.83292007 C125.156078,10.7832431 127.068184,14.3622761 128.08336,17.3991188 C130.338665,24.1505422 129.196592,29.8550768 124.948428,33.050539 C122.323968,35.023189 118.655492,35.2740962 115.754166,35.2740962 C114.271779,35.2740962 112.728827,35.1962285 111.237788,35.1212447 C109.10938,35.014537 106.940596,34.9280173 105.784103,35.0837528 C102.473246,35.5307714 100.477503,37.2871221 97.7117255,39.7212106 C96.9618798,40.3787606 96.191846,41.0536146 95.3698998,41.7284685 C93.8327161,42.9916566 92.3387928,44.3586685 90.7525807,45.8122 C88.2579018,48.0934371 85.6795862,50.4496579 82.882085,52.3934679 C81.5900432,53.2932732 80.4018262,53.9104473 79.447215,54.4064938 C77.3851393,55.4793385 77.0131005,55.6754499 76.6525977,57.3827727 C76.4391801,58.3806336 76.3468914,59.3611906 76.2546027,60.3071397 C75.9748526,63.2026669 75.4586127,68.5986144 68.3552668,68.5986144 C67.5592768,68.5986144 66.6911862,68.5351666 65.7019667,68.405387 C62.8900453,68.0304681 60.7789413,66.8509157 59.0860205,65.9020826 C57.2892748,64.8955697 56.2019986,64.3274235 54.7109593,64.3274235 C51.4577826,64.3274235 48.4209076,66.6749923 47.8008429,69.6743431 C47.549933,70.8769674 47.7172062,71.2980302 47.7200902,71.3009142 C47.9652321,71.4970256 48.9890599,71.7998446 52.2393525,71.7998446 L54.0591703,71.7911927 C54.8320882,71.7911927 55.5877019,71.8027286 56.3029394,71.8431045 C57.2546666,71.8979003 58.1400613,72.324731 58.7716621,73.0399608 C59.4032629,73.7494227 59.7291574,74.6809518 59.6714769,75.6326689 C59.4638273,79.1396022 60.3088458,82.3552524 61.8835217,84.0250833 C63.1813315,85.4036311 64.960773,85.6314664 67.3977715,84.8499048 C68.7244216,84.428842 69.7251772,83.9616355 70.7836132,83.465589 C73.0043101,82.4244682 75.2999915,81.3516234 79.3606943,81.3516234 L79.3635783,81.3516234 C81.7832727,81.3516234 82.9772577,80.7921292 84.7797714,79.9413518 C85.9247281,79.4020454 87.2225379,78.7935233 88.8981547,78.2974768 C90.0892557,77.9427459 91.2515165,77.7668224 92.3589809,77.7668224 C98.0491561,77.7668224 101.022583,82.0668533 103.413437,85.5276427 C104.927548,87.719476 106.358023,89.7872977 107.924047,90.0814648 C108.795022,90.2429683 109.991891,90.0901167 111.263744,89.8997733 C112.32218,89.7411538 113.418109,89.5738823 114.606326,89.5738823 C116.78953,89.5738823 118.655492,90.1564485 120.313805,91.3504209 C122.817136,93.1557994 124.475449,96.3166537 125.937648,99.1083572 C126.621161,100.411921 127.264298,101.646269 127.867058,102.491279 C128.322734,103.137293 128.792829,103.838103 129.274461,104.559101 C130.592459,106.537518 132.086382,108.775496 133.571654,109.966584 C135.114605,111.200932 136.565268,111.319176 139.204148,111.443188 C140.657695,111.506635 142.307356,111.584503 144.101217,111.976726 C147.686057,112.769823 153.563693,116.002778 155.288338,120.020177 C157.958943,126.252482 153.730967,130.711133 151.207447,133.37594 C150.679671,133.929667 150.169199,134.468973 149.713524,135.014047 C147.815838,137.30682 147.827374,141.719327 147.836026,145.981866 C147.850446,151.12979 147.864866,156.450754 144.357895,159.666404 C142.454441,161.408335 139.688664,162.273532 137.015176,163.112774 C135.529904,163.571328 133.995605,164.055839 133.133282,164.554769 C130.98757,165.803537 128.187185,167.926155 127.016272,170.954346 C126.557712,172.139666 126.252006,173.229815 125.954952,174.282472 C125.213758,176.927091 124.443724,179.661115 121.623151,182.640278 C120.743524,183.566039 119.809101,184.004406 119.246717,184.261081 C119.194805,184.284153 119.142892,184.310109 119.088096,184.330297 C119.062139,184.630232 119.056371,185.088786 119.056371,185.423329 C119.044835,186.873977 119.030415,188.869699 117.80759,190.527994 C116.411723,192.422776 114.531341,193.423521 113.020114,194.225271 C111.604059,194.980876 110.710012,195.485575 110.173584,196.330584 C108.584488,198.828121 107.875019,202.196622 108.448939,204.521119 C108.639284,205.291145 108.979599,206.312078 109.337218,207.39069 C110.871517,212.00796 112.783624,217.752871 110.012079,222.125001 C108.538344,224.45815 106.069621,225.84535 102.680895,226.260645 C102.026222,226.335628 101.406158,226.376004 100.812049,226.376004 L100.812049,226.376004 C90.4814827,226.376004 88.5030437,215.987868 87.1908137,209.112433 C86.7668625,206.87734 86.3659834,204.766258 85.8122512,203.410783 C84.9210885,201.221833 83.5944384,199.315515 82.1870357,197.293837 C80.0297874,194.193547 77.5841368,190.677961 76.8025669,185.884768 C76.0930975,181.535709 76.0873295,176.751168 76.7881468,172.407877 C77.0246366,170.939926 77.5293404,169.437366 78.0138561,167.980951 C78.6973693,165.933317 79.4731711,163.60882 79.1126684,162.32256 C78.5070238,160.148031 75.7845072,158.189801 72.9062533,156.121979 C69.6213524,153.757106 65.8923121,151.07211 63.9830896,147.034523 C63.374561,145.748263 62.9102335,144.580246 62.5064704,143.553545 C61.7249005,141.575127 61.1077198,140.014888 59.7320414,138.244118 C59.0341081,137.347196 58.226582,136.441623 57.3729115,135.484138 C55.4463849,133.318261 53.4564098,131.080284 52.1355277,128.337608 C50.6214163,125.194057 49.136145,118.690657 50.5752719,114.073387 C51.244365,111.92193 52.6056233,110.278055 53.8053764,108.830291 C54.3850648,108.129482 54.8320882,107.567103 55.1550987,107.088361 C51.3280016,105.793449 48.9948279,104.354337 45.5080455,100.04277 C43.3104208,97.3260506 42.280825,97.2654868 38.8719111,97.0607234 C37.669274,96.9886237 36.3080157,96.9078719 34.6958474,96.6858046 C28.0799012,95.7715794 26.7186429,91.5523003 25.6198306,88.1607266 C25.3054722,87.1801696 24.9766937,86.1678887 24.5181342,85.1556078 C23.5519869,83.0474103 22.0840198,81.1036002 20.5208799,79.3962774 Z M24.1691676,72.8611534 C26.6869187,75.3586898 29.3344508,78.4734002 31.0273716,82.1908649 C31.6589724,83.5751806 32.0685035,84.8441368 32.4290062,85.9631254 C33.3836175,88.9192163 33.5076304,89.2999032 35.6735309,89.5969542 C37.011717,89.7815297 38.1768618,89.8478615 39.3016304,89.9170773 C43.206596,90.1535645 46.8894919,90.3727479 51.0742077,95.5408601 C54.1860673,99.3938723 55.3569802,99.7341833 60.2973097,101.190599 C61.5980035,101.57417 62.5728029,102.661434 62.8092927,103.996722 C63.5649065,108.259261 61.1134879,111.224004 59.3253943,113.386998 C58.4717238,114.419466 57.6670817,115.394255 57.4132878,116.207541 C56.7182385,118.42533 57.4882724,122.958964 58.5842007,125.231549 C59.4724794,127.071536 61.0471554,128.84519 62.7227721,130.722669 C63.6168188,131.726298 64.5425899,132.767418 65.3847243,133.851799 C67.3920035,136.432971 68.2947023,138.714208 69.168561,140.914693 C69.5434838,141.866411 69.9385948,142.867155 70.4606028,143.974608 C71.5824873,146.339481 74.2617436,148.271755 77.0967371,150.310737 C80.8517336,153.013036 84.730743,155.807624 86.0141328,160.396054 C86.96586,163.799164 85.8209033,167.222461 84.8114956,170.247768 C84.3990805,171.487884 84.0097376,172.6559 83.8626524,173.549938 C83.28008,177.152043 83.2858481,181.123299 83.8741885,184.731172 C84.3961965,187.929518 86.0977694,190.372258 88.0675564,193.207222 C89.6335802,195.456735 91.2544005,197.787 92.4483856,200.717135 C93.2674478,202.727277 93.7346593,205.181553 94.2307111,207.771377 C95.7678948,215.843669 97.0224443,219.217938 100.817817,219.217938 L100.820701,219.217938 C101.135059,219.217938 101.469606,219.194866 101.818573,219.15449 C102.473246,219.079507 103.618202,218.860323 103.972937,218.300829 C104.927548,216.795386 103.381713,212.146392 102.551114,209.651739 C102.144467,208.431811 101.763776,207.283983 101.507098,206.239978 C100.241013,201.135313 102.132931,195.644194 104.137326,192.486224 C105.712002,190.008875 107.903859,188.840859 109.665996,187.906446 C110.583115,187.419051 111.390641,186.989337 111.869389,186.49329 C111.898229,186.199123 111.903997,185.711729 111.903997,185.362766 C111.915533,183.984218 111.927069,182.271127 112.858608,180.716656 C113.992029,178.810338 115.457112,178.1326 116.241566,177.766333 C116.345391,177.717305 116.446332,177.682697 116.547272,177.619249 C118.038312,176.018634 118.424771,174.634318 119.070792,172.341545 C119.396686,171.185065 119.765841,169.869965 120.345529,168.37029 C121.862525,164.442294 125.043601,160.981504 129.539791,158.365724 C131.100047,157.463035 133.023689,156.857397 134.883884,156.271947 C136.536428,155.755712 138.794617,155.052018 139.524275,154.385816 C140.70384,153.301436 140.692304,149.252312 140.686536,145.993402 C140.669231,140.715698 140.657695,134.731416 144.207926,130.442921 C144.75589,129.782487 145.378839,129.119169 146.013324,128.450084 C148.738725,125.574744 149.425122,124.490364 148.718536,122.837837 C148.245557,121.739036 144.865483,119.472219 142.564034,118.964637 C141.372933,118.699309 140.161644,118.644513 138.881138,118.58395 C136.054796,118.457054 132.539174,118.292667 129.104304,115.547107 C126.753826,113.663861 124.931124,110.932721 123.327608,108.524588 C122.886353,107.864154 122.456633,107.21814 122.035566,106.624038 C121.155939,105.386806 120.368601,103.881363 119.604336,102.424947 C118.563204,100.440761 117.265394,97.9634127 116.131973,97.1414752 C115.783007,96.890568 115.387896,96.7232965 114.614978,96.7232965 C113.960305,96.7232965 113.172967,96.8386561 112.339484,96.9655517 C110.649448,97.216459 108.486431,97.4558302 106.614701,97.1068673 C102.153119,96.2705099 99.5921078,92.5674652 97.5358002,89.5911863 C94.8132835,85.6458863 93.6481387,84.3423223 90.9429262,85.1498398 C89.7893174,85.4930348 88.8404742,85.9400534 87.8368346,86.410144 C85.7545708,87.390701 83.3925569,88.5039216 79.5106634,88.5039216 L79.5106634,88.5039216 C76.8977396,88.5039216 75.7412468,89.0461119 73.8262563,89.9401492 C72.6639955,90.4852235 71.3488815,91.1023977 69.5867441,91.6618919 C64.4791414,93.2971149 59.8531703,92.290602 56.6836302,88.9336363 C54.3994849,86.5081997 52.9776621,82.9897304 52.5969712,78.9550268 L52.2451206,78.9579108 C49.2543899,78.9579108 44.7380116,78.9579108 42.151044,75.7739845 C40.6080923,73.8820863 40.1553009,71.34129 40.7984377,68.2236956 C42.1048996,61.9192908 48.086361,57.1664733 54.7138433,57.1664733 C58.1487134,57.1693573 60.608784,58.5479051 62.587223,59.6524737 C63.9888577,60.4369193 65.1972628,61.1146573 66.6479258,61.3050007 C67.6486814,61.4376643 68.513888,61.4549682 68.9205351,61.4117084 C69.0128238,60.9502698 69.0849243,60.2033161 69.1397208,59.6178658 C69.2406615,58.585397 69.3646745,57.2933689 69.6588447,55.8975172 C70.7230488,50.8793725 73.6070706,49.3796971 76.153662,48.0530612 C77.0073324,47.6146945 77.8898431,47.1532559 78.8040781,46.5158939 C81.2064683,44.846063 83.4992657,42.7494014 85.9247281,40.5287282 C87.5080561,39.0809646 89.1490646,37.5841732 90.8333333,36.1998574 C91.5918311,35.5769153 92.3013005,34.9510892 92.9905817,34.3454511 C96.1312815,31.5825875 99.3786902,28.7303202 104.83526,27.9949025 C106.525296,27.7641832 108.973831,27.8420509 111.612711,27.9775985 C112.985505,28.0439303 114.395792,28.1217981 115.759934,28.1217981 C119.099632,28.1217981 120.259009,27.6257516 120.651236,27.3315845 C122.462401,25.9645727 122.220143,23.1469133 121.695251,21.0214118 C120.172488,14.8554386 115.220622,9.51140294 113.556542,9.11052816 C100.422706,11.4263731 87.7878062,15.7696638 75.9950408,22.0163887 C46.1800226,38.5503102 28.8874274,64.9359456 24.1691676,72.8611534 Z M181.928048,26.3019996 C183.208554,26.3019996 184.330439,26.4461992 185.362919,26.7461343 C191.223251,28.4361531 191.924068,32.9005715 192.437424,36.1594815 C192.552785,36.8920153 192.67103,37.6706929 192.858491,38.4695585 C193.449716,40.9815148 194.816742,43.2194919 196.264521,45.5901327 C198.274684,48.8836506 200.553062,52.6155352 200.720335,57.4318005 C200.899144,62.6460566 198.756316,66.1328019 196.685588,69.5013036 C196.097248,70.4587887 195.488719,71.4393457 194.923451,72.5035385 C193.420876,75.3240819 193.42376,77.6745347 193.426644,81.5708068 L193.426644,82.2658486 C193.420876,86.4995477 193.420876,87.1513297 195.788658,89.1643556 C199.863781,92.628029 201.337516,94.4737833 204.057148,99.5640278 C207.344933,105.701161 212.198742,107.007609 220.571058,107.370992 C231.631282,107.852618 236.963838,110.237679 239.34604,123.05702 C240.652502,130.125682 241.858023,140.603222 237.188792,149.950238 C233.733733,156.863165 232.663761,160.251854 232.663761,167.963647 C232.663761,169.215299 232.701254,170.492907 232.744514,171.773399 C232.831035,174.518959 232.923323,177.362574 232.646457,180.183117 C232.291723,183.733311 230.892972,186.455798 229.655727,188.855279 C229.156791,189.830068 228.683811,190.747177 228.268512,191.721966 C227.394653,193.781136 227.579231,194.738621 227.671519,194.862633 C227.71478,194.914544 228.057978,195.104888 228.842432,195.104888 L228.842432,195.104888 C230.333472,195.104888 232.22539,194.421382 233.906775,193.270669 C239.025914,189.778156 244.439223,185.371418 249.56413,180.53208 C252.624077,177.639437 255.384086,174.461279 258.712247,169.953601 C259.687046,166.890802 264.762925,149.794502 264.108252,127.553162 C261.985612,92.8068364 246.250388,61.1031213 219.792372,38.279215 C208.576411,29.2523226 195.131101,21.3617227 179.834249,14.8381347 C179.061331,14.5555035 178.282645,14.2844084 177.498191,14.0133132 C176.252293,14.6449073 173.532661,18.1604925 173.074101,22.1577043 C172.690526,25.534858 174.22771,26.169336 174.807398,26.4087073 C175.606272,26.7374823 177.149224,26.6567306 178.856565,26.4923431 C179.837133,26.4000553 180.86096,26.3019996 181.928048,26.3019996 Z" id="Shape" stroke="#979797" fill="#000000" fill-rule="nonzero"></path>
                </g>
            </g>
        </g>
    </g>
</svg>